<svg width="24" height="24" viewBox="0 0 24 24" xmlns="http://www.w3.org/2000/svg">
<path d="M10.0504 18H4.87538C4.47538 18 4.17538 17.825 3.97538 17.475C3.77538 17.125 3.79204 16.7833 4.02538 16.45L7.00038 12H6.92538C6.52538 12 6.22938 11.821 6.03738 11.463C5.84538 11.105 5.86638 10.759 6.10038 10.425L11.1754 3.17501C11.2754 3.04168 11.4004 2.93768 11.5504 2.86301C11.7004 2.78834 11.8504 2.75068 12.0004 2.75001C12.1504 2.74934 12.3004 2.78701 12.4504 2.86301C12.6004 2.93901 12.7254 3.04301 12.8254 3.17501L17.9004 10.425C18.1337 10.7583 18.1547 11.1043 17.9634 11.463C17.772 11.8217 17.476 12.0007 17.0754 12H17.0004L19.9754 16.45C20.2087 16.7833 20.2254 17.125 20.0254 17.475C19.8254 17.825 19.5254 18 19.1254 18H13.9504V21C13.9504 21.2833 13.8547 21.521 13.6634 21.713C13.472 21.905 13.2344 22.0007 12.9504 22H11.0504C10.767 22 10.5297 21.904 10.3384 21.712C10.147 21.52 10.051 21.2827 10.0504 21V18Z"/>
</svg>
